<svg xmlns="http://www.w3.org/2000/svg" viewBox="0 0 524 190"><path d="M255.522 69.677l8.366 8.366v17.165l-8.366 8.366h-19.04v16.588h-11.181V69.677h30.221zm-2.81 20.124v-6.347l-2.955-3.104h-13.27v12.549h13.27l2.955-3.099zm22.358 30.361l-7.501-7.138V91.243l7.501-7.142h19.329l7.501 7.142v21.781l-7.501 7.138H275.07zm5.481-9.376h8.366l2.522-2.522V96.003l-2.522-2.522h-8.366l-2.522 2.522v12.261l2.522 2.522zm73.201-26.685l7.138 7.142v28.919h-10.46V95.715l-2.233-2.233h-2.164l-6.491 6.491v20.194h-10.455V95.72l-2.238-2.233h-2.164l-6.491 6.491v20.194h-10.455V84.474l9.878-.865.363 6.272 5.193-5.77h9.232l6.347 6.347 5.77-6.347h9.232v-.009zm20.771 36.061l-7.501-7.138V91.243l7.501-7.142h19.329l7.501 7.142v21.781l-7.501 7.138h-19.329zm5.481-9.376h8.366l2.522-2.522V96.003l-2.522-2.522h-8.366l-2.522 2.522v12.261l2.522 2.522zm54.091-17.309h-9.018l-6.779 6.779v19.906h-10.455V84.464l9.878-.865.363 6.561 5.481-6.058h8.869l1.661 9.376zm14.061 3.318l18.752 3.82v12.405l-7.426 7.138H436.98l1.512-8.655h15.504l2.452-2.527v-1.512l-18.752-3.82V91.239l7.501-7.142h18.966l1.587 8.655h-15.076l-2.522 2.522v1.512l.005.009zm46.014 3.462l11.758 14.136v5.77h-10.46v-2.666l-10.53-12.619h-1.875v15.29h-10.455V69.683h10.455v25.82h1.875l9.306-9.232v-2.164h10.455v5.77l-10.53 10.386v-.005zm17.309-19.98V68.956H522.8v11.321h-11.321zm.433 39.881V84.097h10.455v36.061h-10.455zM230.419 15.381v26.42c0 3.104.586 5.686 1.759 7.738 1.74 3.104 4.672 4.653 8.799 4.653 4.946 0 8.31-1.68 10.088-5.035.959-1.824 1.438-4.276 1.438-7.361v-26.42h5.849v24.005c0 5.258-.712 9.301-2.131 12.135-2.61 5.16-7.533 7.738-14.773 7.738s-12.158-2.578-14.745-7.738c-1.419-2.834-2.131-6.877-2.131-12.135V15.376h5.849v.005zm34.056 11.581h4.974v4.42c1.475-1.824 3.034-3.131 4.686-3.927 1.647-.796 3.48-1.191 5.5-1.191 4.42 0 7.408 1.54 8.962 4.625.852 1.689 1.28 4.104 1.28 7.245v19.989h-5.323v-19.64c0-1.898-.279-3.434-.842-4.597-.931-1.94-2.62-2.908-5.062-2.908-1.242 0-2.261.126-3.057.377-1.438.428-2.694 1.28-3.783 2.559-.875 1.028-1.442 2.089-1.703 3.187s-.391 2.662-.391 4.7v16.323h-5.239V26.963zm32.962-11.581h5.323v5.937h-5.323v-5.937zm0 11.726h5.323v31.017h-5.323V27.107zm15.429-.144l5.993 24.559 6.082-24.559h5.877l6.109 24.41 6.375-24.41h5.239l-9.05 31.161h-5.439l-6.342-24.121-6.137 24.121h-5.439l-8.99-31.161h5.733-.009zm58.302.856c2.061 1.038 3.634 2.382 4.714 4.03 1.042 1.573 1.736 3.406 2.08 5.5.307 1.433.461 3.722.461 6.868h-22.665c.098 3.169.838 5.714 2.224 7.631 1.387 1.917 3.532 2.876 6.44 2.876 2.713 0 4.881-.907 6.496-2.717a9.288 9.288 0 001.922-3.653h5.151c-.135 1.145-.586 2.42-1.354 3.825-.768 1.405-1.619 2.555-2.564 3.448-1.577 1.554-3.532 2.601-5.863 3.141-1.252.312-2.666.465-4.244.465-3.857 0-7.124-1.41-9.804-4.234-2.68-2.824-4.02-6.775-4.02-11.856s1.349-9.069 4.048-12.191 6.226-4.686 10.586-4.686c2.196 0 4.327.521 6.389 1.554h.005zm1.875 12.233c-.214-2.271-.703-4.081-1.47-5.439-1.424-2.522-3.802-3.783-7.128-3.783-2.387 0-4.383.87-6.002 2.606-1.615 1.736-2.471 3.941-2.568 6.621h17.165l.005-.005zm11.744-13.094h4.974v5.384c.409-1.047 1.405-2.322 2.997-3.825 1.591-1.503 3.425-2.257 5.5-2.257.098 0 .261.009.493.028s.628.056 1.191.116v5.528c-.312-.056-.596-.098-.856-.116s-.549-.028-.856-.028c-2.638 0-4.667.847-6.082 2.545s-2.126 3.653-2.126 5.863v17.923h-5.235V26.958zm21.083 21.385c.158 1.745.605 3.085 1.335 4.016 1.345 1.689 3.685 2.531 7.007 2.531 1.978 0 3.722-.423 5.225-1.266 1.503-.842 2.257-2.15 2.257-3.913 0-1.34-.6-2.359-1.805-3.057-.768-.428-2.289-.921-4.555-1.484l-4.23-1.047c-2.699-.661-4.69-1.396-5.974-2.21-2.289-1.415-3.429-3.373-3.429-5.877 0-2.95 1.075-5.332 3.229-7.156 2.15-1.824 5.049-2.736 8.683-2.736 4.755 0 8.189 1.377 10.292 4.132 1.317 1.745 1.959 3.625 1.917 5.644h-4.946c-.098-1.177-.526-2.247-1.28-3.211-1.233-1.368-3.364-2.057-6.403-2.057-2.024 0-3.56.377-4.602 1.131-1.042.754-1.563 1.75-1.563 2.987 0 1.354.684 2.434 2.057 3.248.791.484 1.954.907 3.499 1.28l3.527.842c3.834.912 6.403 1.796 7.705 2.648 2.038 1.34 3.057 3.443 3.057 6.314s-1.066 5.17-3.197 7.189c-2.131 2.015-5.374 3.024-9.734 3.024-4.695 0-8.017-1.052-9.971-3.155s-3.001-4.709-3.136-7.812h5.035v-.005zm45.148-21.385h5.788c-.735 2.001-2.378 6.561-4.918 13.68-1.903 5.356-3.49 9.725-4.769 13.098-3.024 7.947-5.156 12.791-6.393 14.536-1.242 1.745-3.373 2.615-6.393 2.615-.735 0-1.303-.028-1.703-.088a13.57 13.57 0 01-1.47-.321v-4.769c.912.251 1.568.409 1.973.465s.763.088 1.075.088c.968 0 1.68-.158 2.136-.479a4.452 4.452 0 001.149-1.177c.098-.154.447-.949 1.047-2.382s1.038-2.499 1.307-3.197l-11.521-32.078h5.937l8.352 25.382 8.408-25.382-.005.009zm11.363-8.701h5.295v8.701h4.974v4.276h-4.974v20.338c0 1.084.368 1.815 1.107 2.182.409.214 1.084.321 2.038.321a12.88 12.88 0 001.833-.117v4.16c-.6.177-1.228.302-1.875.377-.651.079-1.354.116-2.108.116-2.443 0-4.104-.624-4.974-1.875-.875-1.252-1.308-2.876-1.308-4.872V31.232h-4.22v-4.276h4.22v-8.701h-.009zm35.354 9.557c2.061 1.038 3.634 2.382 4.714 4.03 1.042 1.573 1.736 3.406 2.08 5.5.307 1.433.461 3.722.461 6.868h-22.665c.098 3.169.838 5.714 2.224 7.631s3.532 2.876 6.44 2.876c2.713 0 4.881-.907 6.496-2.717a9.288 9.288 0 001.922-3.653h5.151c-.135 1.145-.586 2.42-1.354 3.825s-1.619 2.555-2.564 3.448c-1.577 1.554-3.532 2.601-5.863 3.141-1.252.312-2.666.465-4.244.465-3.857 0-7.124-1.41-9.804-4.234-2.68-2.824-4.02-6.775-4.02-11.856s1.349-9.069 4.048-12.191 6.226-4.686 10.586-4.686c2.196 0 4.327.521 6.389 1.554h.005zm1.875 12.233c-.214-2.271-.703-4.081-1.47-5.439-1.424-2.522-3.802-3.783-7.128-3.783-2.387 0-4.383.87-6.002 2.606-1.615 1.736-2.471 3.941-2.568 6.621h17.165l.005-.005zm13.066-21.795h5.295v8.701h4.974v4.276h-4.974v20.338c0 1.084.368 1.815 1.107 2.182.409.214 1.084.321 2.038.321a12.88 12.88 0 001.833-.117v4.16c-.6.177-1.228.302-1.875.377-.651.079-1.354.116-2.108.116-2.443 0-4.104-.624-4.974-1.875-.875-1.252-1.308-2.876-1.308-4.872V31.227h-4.22v-4.276h4.22V18.25h-.009zM229.451 145.666l5.523 22.628 5.602-22.628h5.416l5.63 22.493 5.872-22.493h4.825l-8.338 28.714h-5.016l-5.844-22.228-5.658 22.228h-5.016l-8.282-28.714h5.286zm54.05 16.006c.121 2.233.628 4.048 1.522 5.444 1.703 2.61 4.709 3.913 9.013 3.913 1.926 0 3.685-.284 5.267-.856 3.066-1.107 4.597-3.09 4.597-5.951 0-2.145-.647-3.671-1.95-4.583-1.317-.893-3.378-1.67-6.179-2.331l-5.17-1.205c-3.378-.786-5.765-1.652-7.166-2.601-2.424-1.643-3.634-4.099-3.634-7.37 0-3.541 1.191-6.444 3.574-8.715 2.382-2.271 5.756-3.406 10.12-3.406 4.016 0 7.431.996 10.241 2.987 2.81 1.991 4.211 5.179 4.211 9.557h-5.016c-.256-2.108-.805-3.727-1.647-4.853-1.559-2.057-4.206-3.08-7.943-3.08-3.015 0-5.183.661-6.505 1.982s-1.978 2.862-1.978 4.611c0 1.931.777 3.341 2.336 4.234 1.024.572 3.332 1.289 6.938 2.145l5.351 1.261c2.578.61 4.569 1.438 5.974 2.494 2.424 1.843 3.639 4.513 3.639 8.017 0 4.36-1.549 7.482-4.639 9.357-3.094 1.875-6.691 2.815-10.786 2.815-4.774 0-8.515-1.252-11.218-3.755-2.703-2.485-4.025-5.854-3.974-10.106h5.016l.005-.005zm38.113 12.707h-4.825v-16.565l-4.774 2.955v-3.62l4.774-2.955v-19.203h4.825v16.211l4.769-2.955v3.62l-4.769 2.955v19.557zm12.614-28.714v19.063c0 1.466.228 2.662.679 3.592.833 1.717 2.392 2.573 4.672 2.573 3.271 0 5.5-1.503 6.686-4.504.642-1.61.968-3.815.968-6.621v-14.103h4.825v28.714h-4.56l.056-4.234a9.677 9.677 0 01-2.289 2.759c-1.805 1.503-3.997 2.252-6.575 2.252-4.016 0-6.752-1.368-8.208-4.099-.791-1.466-1.182-3.425-1.182-5.872v-19.519h4.932-.005zm24.484.135h4.718v3.806c.968-1.303 2.024-2.313 3.173-3.029 1.629-1.07 3.546-1.61 5.751-1.61 3.262 0 6.03 1.247 8.306 3.741 2.275 2.494 3.415 6.054 3.415 10.683 0 6.258-1.643 10.725-4.923 13.405-2.08 1.698-4.504 2.545-7.268 2.545-2.173 0-3.992-.475-5.463-1.419-.861-.535-1.819-1.456-2.88-2.759v14.666h-4.825v-40.025l-.005-.005zm18.156 22.507c1.498-1.884 2.247-4.704 2.247-8.459 0-2.289-.33-4.253-.996-5.9-1.256-3.164-3.55-4.746-6.886-4.746s-5.649 1.67-6.886 5.016c-.665 1.787-.996 4.057-.996 6.807 0 2.215.33 4.099.996 5.658 1.256 2.969 3.55 4.448 6.886 4.448 2.261 0 4.137-.945 5.635-2.829v.005zm15.104-2.936c.144 1.61.558 2.843 1.233 3.699 1.242 1.554 3.392 2.331 6.458 2.331 1.824 0 3.429-.386 4.816-1.168s2.08-1.978 2.08-3.606c0-1.233-.554-2.173-1.661-2.815-.707-.391-2.108-.847-4.197-1.368l-3.895-.963c-2.489-.605-4.323-1.289-5.505-2.038-2.108-1.303-3.159-3.108-3.159-5.416 0-2.717.991-4.914 2.973-6.593 1.982-1.68 4.648-2.522 8.003-2.522 4.383 0 7.543 1.27 9.483 3.806 1.214 1.61 1.805 3.341 1.768 5.202h-4.56a5.452 5.452 0 00-1.182-2.959c-1.135-1.261-3.104-1.894-5.9-1.894-1.866 0-3.28.349-4.239 1.042s-1.442 1.61-1.442 2.75c0 1.247.633 2.243 1.894 2.992.726.447 1.801.838 3.225 1.177l3.252.777c3.532.842 5.9 1.652 7.101 2.438 1.875 1.233 2.815 3.173 2.815 5.816s-.982 4.765-2.945 6.621c-1.964 1.861-4.955 2.787-8.971 2.787-4.323 0-7.389-.968-9.19-2.908s-2.764-4.337-2.89-7.198h4.639l-.005.009zm24.149-30.375h4.639v22.865l12.372-12.196h6.165l-11.037 10.674 11.656 18.035h-6.165l-9.032-14.61-3.964 3.834v10.776h-4.639v-39.383l.005.005zm31.836 10.669v19.063c0 1.466.228 2.662.679 3.592.833 1.717 2.392 2.573 4.672 2.573 3.271 0 5.5-1.503 6.686-4.504.642-1.61.968-3.815.968-6.621v-14.103h4.825v28.714h-4.56l.056-4.234a9.677 9.677 0 01-2.289 2.759c-1.805 1.503-3.997 2.252-6.575 2.252-4.016 0-6.752-1.368-8.208-4.099-.791-1.466-1.182-3.425-1.182-5.872v-19.519h4.932-.005zM55.69 80.442l-17.932-27.89-8.778 2.58v98.454h9.536V71.363l9.154 14.238 8.02-5.159zm70.103-14.519l-23.644-43.458H88.081L64.392 65.918l14.068 7.669 16.647-30.544 16.617 30.539 14.073-7.659h-.005zm33.997 87.659V56.543l-8.868-2.434-15.729 26.474 8.201 4.868 6.861-11.548v79.679h9.536zM86.927 73.406l.015 80.176h16.02l-.015-80.181M59.349 91.017l.09 62.57 9.536-.015-.09-62.57m51.051.005v62.57h9.536v-62.57M151.7 1.401H37.718L.975 38.144v113.987l36.743 36.743h113.987l36.743-36.743V38.154L151.705 1.411l-.005-.01zm-3.307 179.488H41.025L8.96 148.824V41.456L41.025 9.391h107.367l32.065 32.065v107.367l-32.065 32.065z" fill="#262958"/><path d="M524 190H0V0h524v190z" fill="none"/></svg>